<?xml version="1.0" standalone="no"?>
<!DOCTYPE svg PUBLIC "-//W3C//DTD SVG 20010904//EN"
 "http://www.w3.org/TR/2001/REC-SVG-20010904/DTD/svg10.dtd">
<svg version="1.0" xmlns="http://www.w3.org/2000/svg"
 width="256.000000pt" height="256.000000pt" viewBox="0 0 256.000000 256.000000"
 preserveAspectRatio="xMidYMid meet">

<g transform="translate(0.000000,256.000000) scale(0.100000,-0.100000)"
fill="#ffffff" stroke="none">
<path d="M1156 2550 c-155 -28 -284 -97 -402 -215 -76 -76 -97 -105 -137 -185
-62 -127 -77 -194 -84 -387 l-6 -163 -87 0 c-71 0 -90 -3 -103 -18 -16 -17
-17 -81 -17 -713 0 -676 1 -695 21 -739 27 -60 45 -79 104 -106 l50 -24 785 0
785 0 50 24 c59 27 77 46 104 106 20 44 21 63 21 741 0 662 -1 697 -18 712
-14 13 -39 17 -104 17 l-85 0 -6 163 c-7 193 -22 260 -84 387 -39 80 -61 110
-137 186 -77 76 -106 98 -186 138 -52 26 -120 53 -150 62 -67 18 -247 26 -314
14z m205 -320 c173 -33 314 -182 339 -362 5 -35 10 -109 10 -165 l0 -103 -430
0 -430 0 0 103 c1 205 36 314 132 410 102 103 236 144 379 117z m32 -1092 c61
-41 91 -93 95 -164 5 -67 -10 -107 -56 -156 l-25 -28 16 -152 c21 -185 20
-173 1 -192 -23 -23 -265 -23 -288 0 -19 19 -20 7 1 192 l16 152 -25 28 c-79
84 -78 210 3 291 47 47 87 62 159 59 50 -3 74 -9 103 -30z"/>
</g>
</svg>