{
  "accessors": [
    {
      "bufferView": 2,
      "componentType": 5126,
      "count": 35483,
      "max": [
        12.7677001953125,
        11.25979995727539,
        8.908300399780273
      ],
      "min": [
        -5.492099761962891,
        -1.8543000221252441,
        -3.3071000576019287
      ],
      "type": "VEC3"
    },
    {
      "bufferView": 2,
      "byteOffset": 425796,
      "componentType": 5126,
      "count": 35483,
      "max": [
        0.9999999403953552,
        0.9999999403953552,
        0.9999999403953552
      ],
      "min": [
        -0.9999999403953552,
        -0.9999999403953552,
        -0.9999999403953552
      ],
      "type": "VEC3"
    },
    {
      "bufferView": 1,
      "componentType": 5126,
      "count": 35483,
      "max": [
        120.01329803466797,
        51.17879867553711
      ],
      "min": [
        -120.01329803466797,
        -51.40879821777344
      ],
      "type": "VEC2"
    },
    {
      "bufferView": 0,
      "componentType": 5125,
      "count": 114876,
      "type": "SCALAR"
    },
    {
      "bufferView": 2,
      "byteOffset": 851592,
      "componentType": 5126,
      "count": 2301,
      "max": [
        2.106300115585327,
        11.378000259399414,
        8.624799728393555
      ],
      "min": [
        -6.082699775695801,
        5.078700065612793,
        -0.8240000009536743
      ],
      "type": "VEC3"
    },
    {
      "bufferView": 2,
      "byteOffset": 879204,
      "componentType": 5126,
      "count": 2301,
      "max": [
        0.9999999403953552,
        0.9999999403953552,
        0.9999999403953552
      ],
      "min": [
        -0.9999999403953552,
        -0.9999999403953552,
        -0.9999999403953552
      ],
      "type": "VEC3"
    },
    {
      "bufferView": 1,
      "byteOffset": 283864,
      "componentType": 5126,
      "count": 2301,
      "max": [
        14.431900024414063,
        25.132699966430664
      ],
      "min": [
        -15.520700454711914,
        -25.132699966430664
      ],
      "type": "VEC2"
    },
    {
      "bufferView": 0,
      "byteOffset": 459504,
      "componentType": 5125,
      "count": 9792,
      "type": "SCALAR"
    },
    {
      "bufferView": 2,
      "byteOffset": 906816,
      "componentType": 5126,
      "count": 228,
      "max": [
        1.8701000213623047,
        9.527600288391113,
        8.624799728393555
      ],
      "min": [
        -0.8858000040054321,
        6.771699905395508,
        8.428000450134277
      ],
      "type": "VEC3"
    },
    {
      "bufferView": 2,
      "byteOffset": 909552,
      "componentType": 5126,
      "count": 228,
      "max": [
        0.9999999403953552,
        0.9999999403953552,
        0.9999999403953552
      ],
      "min": [
        -0.9999999403953552,
        -0.9999999403953552,
        -0.9999999403953552
      ],
      "type": "VEC3"
    },
    {
      "bufferView": 1,
      "byteOffset": 302272,
      "componentType": 5126,
      "count": 228,
      "max": [
        3.5,
        10.995599746704102
      ],
      "min": [
        -3.5,
        -10.995599746704102
      ],
      "type": "VEC2"
    },
    {
      "bufferView": 0,
      "byteOffset": 498672,
      "componentType": 5125,
      "count": 672,
      "type": "SCALAR"
    },
    {
      "bufferView": 2,
      "byteOffset": 912288,
      "componentType": 5126,
      "count": 33514,
      "max": [
        4.822800159454346,
        4.291299819946289,
        3.937000036239624
      ],
      "min": [
        -2.2637999057769775,
        -4.291299819946289,
        -3.937000036239624
      ],
      "type": "VEC3"
    },
    {
      "bufferView": 2,
      "byteOffset": 1314456,
      "componentType": 5126,
      "count": 33514,
      "max": [
        0.9999999403953552,
        0.9999999403953552,
        0.9999999403953552
      ],
      "min": [
        -0.9999999403953552,
        -0.9999999403953552,
        -0.9999999403953552
      ],
      "type": "VEC3"
    },
    {
      "bufferView": 1,
      "byteOffset": 304096,
      "componentType": 5126,
      "count": 33514,
      "max": [
        36.22209930419922,
        31.840999603271484
      ],
      "min": [
        -36.225399017333984,
        -36.225399017333984
      ],
      "type": "VEC2"
    },
    {
      "bufferView": 0,
      "byteOffset": 501360,
      "componentType": 5125,
      "count": 109500,
      "type": "SCALAR"
    },
    {
      "bufferView": 2,
      "byteOffset": 1716624,
      "componentType": 5126,
      "count": 114,
      "max": [
        4.822800159454346,
        2.3622000217437744,
        2.7165000438690186
      ],
      "min": [
        -2.2637999057769775,
        -3.0708999633789063,
        -2.7165000438690186
      ],
      "type": "VEC3"
    },
    {
      "bufferView": 2,
      "byteOffset": 1717992,
      "componentType": 5126,
      "count": 114,
      "max": [
        0.9999999403953552,
        0.9999999403953552,
        0.9999999403953552
      ],
      "min": [
        -0.0,
        -0.9999999403953552,
        -0.9999999403953552
      ],
      "type": "VEC3"
    },
    {
      "bufferView": 1,
      "byteOffset": 572208,
      "componentType": 5126,
      "count": 114,
      "max": [
        6.900000095367432,
        12.566399574279785
      ],
      "min": [
        -18.0,
        -12.566399574279785
      ],
      "type": "VEC2"
    },
    {
      "bufferView": 0,
      "byteOffset": 939360,
      "componentType": 5125,
      "count": 336,
      "type": "SCALAR"
    },
    {
      "bufferView": 2,
      "byteOffset": 1719360,
      "componentType": 5126,
      "count": 471,
      "max": [
        2.106300115585327,
        9.763799667358398,
        8.975899696350098
      ],
      "min": [
        -1.121999979019165,
        6.535399913787842,
        8.408300399780273
      ],
      "type": "VEC3"
    },
    {
      "bufferView": 2,
      "byteOffset": 1725012,
      "componentType": 5126,
      "count": 471,
      "max": [
        0.9999999403953552,
        0.9999999403953552,
        0.9999999403953552
      ],
      "min": [
        -0.9999999403953552,
        -0.9999999403953552,
        0.0
      ],
      "type": "VEC3"
    },
    {
      "bufferView": 1,
      "byteOffset": 573120,
      "componentType": 5126,
      "count": 471,
      "max": [
        1.5,
        6.0
      ],
      "min": [
        -12.766900062561035,
        -56.68600082397461
      ],
      "type": "VEC2"
    },
    {
      "bufferView": 0,
      "byteOffset": 940704,
      "componentType": 5125,
      "count": 1308,
      "type": "SCALAR"
    }
  ],
  "asset": {
    "extras": {
      "author": "liebherr996litronic (https://sketchfab.com/liebherr996litronic)",
      "license": "CC-BY-4.0 (http://creativecommons.org/licenses/by/4.0/)",
      "source": "https://sketchfab.com/3d-models/valve-01-2b7d97de3a1545cfafa949f162f3c8ca",
      "title": "Valve 01"
    },
    "generator": "Sketchfab-12.68.0",
    "version": "2.0"
  },
  "bufferViews": [
    {
      "buffer": 0,
      "byteLength": 945936,
      "name": "floatBufferViews",
      "target": 34963
    },
    {
      "buffer": 0,
      "byteLength": 576888,
      "byteOffset": 945936,
      "byteStride": 8,
      "name": "floatBufferViews",
      "target": 34962
    },
    {
      "buffer": 0,
      "byteLength": 1730664,
      "byteOffset": 1522824,
      "byteStride": 12,
      "name": "floatBufferViews",
      "target": 34962
    }
  ],
  "buffers": [
    {
      "byteLength": 3253488,
      "uri": "scene.bin"
    }
  ],
  "materials": [
    {
      "doubleSided": true,
      "name": "Material__43",
      "pbrMetallicRoughness": {
        "baseColorFactor": [
          0.3187739712838211,
          0.3183274419468484,
          0.33108273651581677,
          1.0
        ],
        "metallicFactor": 0.20235576309213288,
        "roughnessFactor": 0.5306851139120442
      }
    },
    {
      "doubleSided": true,
      "name": "Material__44",
      "pbrMetallicRoughness": {
        "baseColorFactor": [
          0.31034588596650325,
          0.013580677615503849,
          0.0024367257485779087,
          1.0
        ],
        "metallicFactor": 0.0,
        "roughnessFactor": 0.6
      }
    },
    {
      "doubleSided": true,
      "name": "Material__45",
      "pbrMetallicRoughness": {
        "metallicFactor": 0.0,
        "roughnessFactor": 0.6
      }
    },
    {
      "doubleSided": true,
      "name": "Material__46",
      "pbrMetallicRoughness": {
        "baseColorFactor": [
          0.7067582146526664,
          0.41357972983601643,
          0.01873026704614466,
          1.0
        ],
        "metallicFactor": 0.28747818737877656,
        "roughnessFactor": 0.13547385829548425
      }
    },
    {
      "doubleSided": true,
      "name": "Material__47",
      "pbrMetallicRoughness": {
        "baseColorFactor": [
          0.007970856461210239,
          0.004336181121683814,
          0.004336181121683814,
          1.0
        ],
        "metallicFactor": 0.19627558992880118,
        "roughnessFactor": 0.3361195726854301
      }
    },
    {
      "doubleSided": true,
      "name": "Material__48",
      "pbrMetallicRoughness": {
        "baseColorFactor": [
          0.6128662499164927,
          0.5277430499585379,
          0.006127515032293261,
          1.0
        ],
        "metallicFactor": 0.23275662890879134,
        "roughnessFactor": 0.2509971483987864
      }
    }
  ],
  "meshes": [
    {
      "name": "Object_0",
      "primitives": [
        {
          "attributes": {
            "NORMAL": 1,
            "POSITION": 0,
            "TEXCOORD_0": 2
          },
          "indices": 3,
          "material": 0,
          "mode": 4
        }
      ]
    },
    {
      "name": "Object_1",
      "primitives": [
        {
          "attributes": {
            "NORMAL": 5,
            "POSITION": 4,
            "TEXCOORD_0": 6
          },
          "indices": 7,
          "material": 1,
          "mode": 4
        }
      ]
    },
    {
      "name": "Object_2",
      "primitives": [
        {
          "attributes": {
            "NORMAL": 9,
            "POSITION": 8,
            "TEXCOORD_0": 10
          },
          "indices": 11,
          "material": 2,
          "mode": 4
        }
      ]
    },
    {
      "name": "Object_3",
      "primitives": [
        {
          "attributes": {
            "NORMAL": 13,
            "POSITION": 12,
            "TEXCOORD_0": 14
          },
          "indices": 15,
          "material": 3,
          "mode": 4
        }
      ]
    },
    {
      "name": "Object_4",
      "primitives": [
        {
          "attributes": {
            "NORMAL": 17,
            "POSITION": 16,
            "TEXCOORD_0": 18
          },
          "indices": 19,
          "material": 4,
          "mode": 4
        }
      ]
    },
    {
      "name": "Object_5",
      "primitives": [
        {
          "attributes": {
            "NORMAL": 21,
            "POSITION": 20,
            "TEXCOORD_0": 22
          },
          "indices": 23,
          "material": 5,
          "mode": 4
        }
      ]
    }
  ],
  "nodes": [
    {
      "children": [
        1
      ],
      "matrix": [
        1.0,
        0.0,
        0.0,
        0.0,
        0.0,
        2.220446049250313e-16,
        -1.0,
        0.0,
        0.0,
        1.0,
        2.220446049250313e-16,
        0.0,
        0.0,
        0.0,
        0.0,
        1.0
      ],
      "name": "Sketchfab_model"
    },
    {
      "children": [
        2,
        3,
        4,
        5,
        6,
        7
      ],
      "name": "valve 01.obj.cleaner.materialmerger.gles"
    },
    {
      "mesh": 0,
      "name": "Object_2"
    },
    {
      "mesh": 1,
      "name": "Object_3"
    },
    {
      "mesh": 2,
      "name": "Object_4"
    },
    {
      "mesh": 3,
      "name": "Object_5"
    },
    {
      "mesh": 4,
      "name": "Object_6"
    },
    {
      "mesh": 5,
      "name": "Object_7"
    }
  ],
  "scene": 0,
  "scenes": [
    {
      "name": "Sketchfab_Scene",
      "nodes": [
        0
      ]
    }
  ]
}
