<?xml version="1.0" standalone="no"?>
<!DOCTYPE svg PUBLIC "-//W3C//DTD SVG 20010904//EN"
 "http://www.w3.org/TR/2001/REC-SVG-20010904/DTD/svg10.dtd">
<svg version="1.0" xmlns="http://www.w3.org/2000/svg"
 width="512.000000pt" height="512.000000pt" viewBox="0 0 512.000000 512.000000"
 preserveAspectRatio="xMidYMid meet">

<g transform="translate(0.000000,512.000000) scale(0.100000,-0.100000)"
fill="#000000" stroke="none">
<path d="M988 5099 c-23 -12 -46 -35 -58 -59 -18 -36 -20 -58 -20 -280 l0
-240 -240 0 c-222 0 -244 -2 -280 -20 -26 -13 -47 -34 -60 -60 -19 -38 -20
-58 -20 -670 0 -612 1 -632 20 -670 13 -26 34 -47 60 -60 36 -18 58 -20 280
-20 l240 0 0 -1450 c0 -1434 0 -1451 20 -1490 13 -26 34 -47 60 -60 39 -20 55
-20 1870 -20 1815 0 1831 0 1870 20 26 13 47 34 60 60 20 39 20 55 20 2030 0
1803 -2 1994 -16 2023 -22 44 -920 944 -966 968 -36 19 -72 19 -1420 19 -1357
-1 -1384 -1 -1420 -21z m2622 -669 c0 -372 1 -393 20 -430 13 -26 34 -47 60
-60 37 -19 58 -20 430 -20 l390 0 0 -1810 0 -1810 -1650 0 -1650 0 0 1360 0
1360 840 0 c823 0 842 0 880 20 26 13 47 34 60 60 19 38 20 58 20 670 0 612
-1 632 -20 670 -13 26 -34 47 -60 60 -38 20 -57 20 -880 20 l-840 0 0 150 0
150 1200 0 1200 0 0 -390z m495 -20 l190 -190 -193 0 -192 0 0 190 c0 105 1
190 3 190 1 0 88 -85 192 -190z m-1395 -640 l0 -450 -1050 0 -1050 0 0 450 0
450 1050 0 1050 0 0 -450z"/>
<path d="M1588 2699 c-23 -12 -46 -35 -58 -59 -20 -38 -20 -57 -20 -830 0
-773 0 -792 20 -830 13 -26 34 -47 60 -60 39 -20 56 -20 1270 -20 1214 0 1231
0 1270 20 26 13 47 34 60 60 20 38 20 57 20 830 0 773 0 792 -20 830 -13 26
-34 47 -60 60 -39 20 -56 20 -1272 20 -1208 -1 -1234 -1 -1270 -21z m522 -429
l0 -150 -150 0 -150 0 0 150 0 150 150 0 150 0 0 -150z m1800 0 l0 -150 -750
0 -750 0 0 150 0 150 750 0 750 0 0 -150z m-1800 -760 l0 -310 -150 0 -150 0
0 310 0 310 150 0 150 0 0 -310z m900 0 l0 -310 -300 0 -300 0 0 310 0 310
300 0 300 0 0 -310z m900 0 l0 -310 -300 0 -300 0 0 310 0 310 300 0 300 0 0
-310z"/>
<path d="M988 3899 c-43 -22 -78 -81 -78 -129 0 -50 35 -107 80 -130 37 -19
58 -20 370 -20 312 0 333 1 370 20 45 23 80 80 80 130 0 50 -35 107 -80 130
-37 19 -58 20 -372 20 -312 -1 -335 -2 -370 -21z"/>
<path d="M2188 3899 c-43 -22 -78 -81 -78 -129 0 -50 35 -107 80 -130 21 -11
53 -20 70 -20 76 0 150 74 150 150 0 50 -35 107 -80 130 -49 25 -94 25 -142
-1z"/>
</g>
</svg>
