<svg version="1.2" xmlns="http://www.w3.org/2000/svg" viewBox="0 0 512 512" width="512" height="512" fill="#FFFFFF"><style></style><path fill-rule="evenodd" d="m265.5 30c142.5-0.1 134-0.4 147.5 6.2 14.1 6.9 25.5 21.2 29.3 37 1.8 7.3 1.8 358.5 0 365.7-3.8 15.8-15.2 30.1-29.3 37-13.6 6.7-5 6.4-149.9 6.1l-129.6-0.3-6.5-2.3c-8.9-3.3-15.2-7.3-21.7-13.7-6.3-6.4-10.4-12.8-13.6-21.7-2.2-6.1-2.3-7.6-2.6-26l-0.4-19.6 20.2-0.3c19.5-0.3 20.4-0.4 24.6-2.5 6.4-3.2 13.2-10.3 15.5-16.5 2.4-6.3 2.6-16.4 0.6-22.2-3.3-8.5-9.3-14.7-18.2-18.4-4.6-1.9-6.2-2.1-23.7-2.1h-18.8v-49.3l19.7-0.3c19.2-0.3 19.7-0.4 24.6-2.7 23.9-11.1 23.9-45 0-56.1-4.9-2.3-5.4-2.4-24.6-2.7l-19.7-0.2v-49.4h18.8c17.5 0 19.1-0.2 23.7-2 8.9-3.8 14.9-9.9 18.2-18.5 2-5.7 1.8-15.9-0.6-22.2-2.3-6.2-9.1-13.3-15.5-16.5-4.2-2.1-5.1-2.2-24.6-2.5l-20.2-0.2 0.4-19.6c0.3-18.5 0.4-20 2.6-26.1 3.2-8.9 7.3-15.3 13.6-21.7 8.1-8.1 17.9-13.4 29.1-15.6 1.9-0.3 60.9-0.7 131.1-0.8zm-19.8 121.4c-21.1 14.9-28.4 42.4-17.6 65.7 8.9 19.4 26.9 31 48.2 31.2 9.5 0 15.1-1.2 23.4-5.1 8.7-4.2 16-10.5 21.3-18.3 5.9-8.9 8.2-15.8 8.8-26.4 0.6-11.1-0.7-17.7-5.3-27.2-6.8-14.2-21.1-25.5-36.5-28.7-14.8-3.1-30.1 0-42.3 8.8zm30.5 115.3c-33.2 0-36.9 0.4-47.3 4.8-12 5.1-23.2 15.9-29.2 28.3-5.2 10.8-6.6 18.3-6.6 35.8v14.1h167v-15.3c0-12.4-0.4-16.7-1.8-22.3-2.9-11.5-7.3-19.2-15.9-27.8-8.6-8.6-16.3-13-27.7-15.9-6.4-1.6-9.9-1.7-38.5-1.7z"/><path  d="m83.1 127.5c-0.4 0.2-1.9 0.6-3.3 0.8-4.2 1-9.3 6.4-10.9 11.7-1.2 4.3-1.2 5.2 0 9.5 1.9 6.3 6.5 10.6 13 12.1 3.2 0.7 11.2 0.9 23.8 0.7 18.2-0.3 19.1-0.4 22.7-2.4 5.4-3.1 8.5-8 8.9-14.1 0.4-6.8-2.3-11.9-8.2-15.6l-4.3-2.7-20.4-0.1c-11.2-0.1-20.7 0-21.3 0.1z"/><path  d="m83.1 238.8c-0.4 0.2-1.9 0.6-3.3 0.8-4.2 1-9.3 6.4-10.9 11.7-1.2 4.3-1.2 5.2 0 9.5 1.5 5.2 6.5 10.5 10.9 11.8 1.4 0.4 12 0.7 23.7 0.7 20.8 0 21.2 0 24.9-2.1 2.1-1.3 4.8-3.7 6.2-5.7 2.1-3 2.4-4.4 2.4-9.4 0-5.1-0.3-6.5-2.4-9.5-1.4-1.9-4.1-4.4-6.2-5.6-3.7-2.1-4.4-2.2-24.1-2.3-11.1-0.1-20.6-0.1-21.2 0.1z"/><path  d="m80.1 351c-5.3 1.7-9.6 6.1-11.2 11.7-1.2 4.2-1.2 5.1 0 9.4 1.5 5.2 6.5 10.5 10.9 11.8 1.4 0.4 12 0.7 23.8 0.7h21.2l4.3-2.7c11.4-7 11-22.9-0.7-29.7-3.7-2-4.4-2.1-24.1-2.2-15.4-0.2-21.2 0-24.2 1z"/></svg>